<?xml version="1.0" standalone="no"?>
<!DOCTYPE svg PUBLIC "-//W3C//DTD SVG 20010904//EN"
 "http://www.w3.org/TR/2001/REC-SVG-20010904/DTD/svg10.dtd">
<svg version="1.0" xmlns="http://www.w3.org/2000/svg"
 width="700.000000pt" height="700.000000pt" viewBox="0 0 700.000000 700.000000"
 preserveAspectRatio="xMidYMid meet">
<metadata>
Created by potrace 1.14, written by Peter Selinger 2001-2017
</metadata>
<g transform="translate(0.000000,700.000000) scale(0.100000,-0.100000)"
fill="#000000" stroke="none">
<path d="M3310 6849 c-1220 -68 -2317 -807 -2841 -1914 -143 -303 -235 -610
-291 -970 -25 -168 -36 -568 -19 -752 73 -796 408 -1520 961 -2073 524 -526
1162 -847 1905 -960 178 -28 583 -38 772 -21 792 74 1511 410 2069 966 273
271 464 535 632 872 242 483 356 968 354 1513 0 299 -29 530 -102 820 -158
629 -512 1216 -995 1653 -670 606 -1548 916 -2445 866z m480 -1343 c172 -40
296 -94 451 -198 236 -157 434 -429 515 -706 124 -429 27 -887 -260 -1225 -69
-81 -100 -98 -253 -138 -99 -26 -143 -32 -269 -36 -95 -4 -183 -1 -234 6 -486
71 -900 436 -1058 932 -86 270 -82 582 11 830 77 204 241 440 335 480 61 26
215 67 297 78 118 16 345 5 465 -23z m-859 -2456 c79 -38 168 -71 244 -91 114
-31 129 -32 310 -33 260 -1 395 29 609 136 l99 49 121 -41 c560 -192 1043
-596 1343 -1123 47 -82 54 -102 46 -120 -18 -37 -194 -237 -291 -329 -103 -98
-227 -198 -340 -276 -107 -73 -304 -133 -592 -177 -164 -26 -523 -31 -700 -11
-325 38 -614 121 -905 261 -193 92 -332 213 -443 384 -110 168 -162 346 -162
558 0 223 50 393 169 575 96 148 265 296 337 297 19 1 81 -23 155 -59z"/>
</g>
</svg>
